<?xml version="1.0" standalone="no"?>
<!DOCTYPE svg PUBLIC "-//W3C//DTD SVG 20010904//EN"
 "http://www.w3.org/TR/2001/REC-SVG-20010904/DTD/svg10.dtd">
<svg version="1.0" xmlns="http://www.w3.org/2000/svg"
 width="200.000000pt" height="200.000000pt" viewBox="0 0 200.000000 200.000000"
 preserveAspectRatio="xMidYMid meet">
<metadata>
Created by potrace 1.14, written by Peter Selinger 2001-2017
</metadata>
<g transform="translate(0.000000,200.000000) scale(0.100000,-0.100000)"
fill="#000000" stroke="none">
<path d="M1272 1608 c-6 -7 -45 -85 -87 -173 -135 -280 -200 -414 -315 -650
-196 -402 -199 -410 -164 -403 21 4 14 -9 143 258 116 242 182 377 353 729 60
124 106 231 104 238 -7 16 -20 17 -34 1z"/>
<path d="M329 1260 c-137 -137 -249 -255 -249 -262 0 -8 112 -126 250 -262
214 -214 251 -247 265 -236 8 7 15 14 15 16 0 1 -108 111 -241 244 l-241 242
241 237 c133 131 241 242 241 248 0 6 -7 14 -16 17 -11 4 -89 -68 -265 -244z"/>
<path d="M1397 1503 c-4 -3 -7 -10 -7 -14 0 -5 108 -116 241 -247 l241 -239
-242 -242 c-132 -133 -240 -247 -237 -254 2 -6 8 -12 14 -14 14 -5 513 493
513 510 0 15 -491 507 -506 507 -6 0 -14 -3 -17 -7z"/>
</g>
</svg>
